<svg width="16" height="16" viewBox="0 0 16 16" fill="none" xmlns="http://www.w3.org/2000/svg">
<g id="mention" clip-path="url(#clip0_2608_241)">
<path id="Icon" fill-rule="evenodd" clip-rule="evenodd" d="M4.75 2.37004C4.01066 2.79684 3.36262 3.36508 2.84288 4.04232C2.32315 4.71956 1.9419 5.49254 1.72089 6.31713C1.27456 7.98245 1.50805 9.75687 2.37 11.25C3.23195 12.7432 4.65176 13.8328 6.31709 14.2791C7.98241 14.7254 9.75683 14.492 11.25 13.63C11.4216 13.5386 11.622 13.5174 11.8089 13.5709C11.9958 13.6244 12.1546 13.7484 12.2519 13.9168C12.3492 14.0851 12.3773 14.2846 12.3303 14.4733C12.2833 14.6619 12.1649 14.825 12 14.928C10.4875 15.8008 8.73095 16.1548 6.99845 15.9359C5.26594 15.7169 3.65266 14.9371 2.40483 13.7155C1.15701 12.4939 0.343178 10.8975 0.0875661 9.17003C-0.168046 7.44256 0.148599 5.6789 0.98917 4.14823C1.82974 2.61757 3.14807 1.40398 4.74293 0.692706C6.33779 -0.0185698 8.12158 -0.188465 9.82203 0.208952C11.5225 0.606369 13.0462 1.54927 14.1606 2.89373C15.275 4.2382 15.9189 5.91038 15.994 7.65504C15.998 7.68655 16 7.71828 16 7.75004V7.85404C16.0007 7.91737 16.0007 7.98071 16 8.04404V9.25004C16.0004 9.84571 15.8073 10.4253 15.4498 10.9018C15.0924 11.3783 14.5899 11.7259 14.0179 11.8922C13.4459 12.0586 12.8354 12.0347 12.2782 11.8242C11.721 11.6137 11.2471 11.228 10.928 10.725C10.2933 11.4069 9.4405 11.8459 8.51672 11.9663C7.59293 12.0866 6.65612 11.8807 5.8679 11.3842C5.07969 10.8876 4.48951 10.1315 4.19919 9.24636C3.90888 8.36117 3.93664 7.4024 4.27768 6.53548C4.61872 5.66856 5.25165 4.94787 6.06727 4.49774C6.8829 4.04762 7.83005 3.89629 8.74533 4.06988C9.6606 4.24346 10.4866 4.73107 11.0808 5.44856C11.6749 6.16606 12.0001 7.06845 12 8.00004V9.25004C12 9.58156 12.1317 9.8995 12.3661 10.1339C12.6005 10.3683 12.9185 10.5 13.25 10.5C13.5815 10.5 13.8995 10.3683 14.1339 10.1339C14.3683 9.8995 14.5 9.58156 14.5 9.25004V7.86704C14.477 6.73738 14.1599 5.63322 13.58 4.66348C13.0001 3.69374 12.1775 2.89191 11.1932 2.33707C10.2089 1.78224 9.09696 1.49356 7.96708 1.49952C6.8372 1.50547 5.72839 1.80586 4.75 2.37104V2.37004ZM10.5 8.00004C10.5 7.337 10.2366 6.70112 9.76777 6.23227C9.29893 5.76343 8.66304 5.50004 8 5.50004C7.33696 5.50004 6.70107 5.76343 6.23223 6.23227C5.76339 6.70112 5.5 7.337 5.5 8.00004C5.5 8.66308 5.76339 9.29897 6.23223 9.76781C6.70107 10.2366 7.33696 10.5 8 10.5C8.66304 10.5 9.29893 10.2366 9.76777 9.76781C10.2366 9.29897 10.5 8.66308 10.5 8.00004Z" fill=""/>
</g>
<clipPath id="clip0_2608_241">
<rect width="16" height="16" fill="white"/>
</clipPath>
</svg>
